<?xml version="1.0" encoding="UTF-8" standalone="no"?>
<svg
   width="81.8444mm"
   height="60.325mm"
   viewBox="0 0 232 171"
   version="1.2"
   id="svg76"
   sodipodi:docname="respuesta_discreta.svg"
   inkscape:export-filename="respuesta_discreta.pdf"
   inkscape:export-xdpi="96"
   inkscape:export-ydpi="96"
   inkscape:version="1.4.2 (ebf0e940, 2025-05-08)"
   xmlns:inkscape="http://www.inkscape.org/namespaces/inkscape"
   xmlns:sodipodi="http://sodipodi.sourceforge.net/DTD/sodipodi-0.dtd"
   xmlns="http://www.w3.org/2000/svg"
   xmlns:svg="http://www.w3.org/2000/svg">
  <sodipodi:namedview
     id="namedview76"
     pagecolor="#ffffff"
     bordercolor="#000000"
     borderopacity="0.25"
     inkscape:showpageshadow="2"
     inkscape:pageopacity="0.0"
     inkscape:pagecheckerboard="0"
     inkscape:deskcolor="#d1d1d1"
     inkscape:document-units="mm"
     inkscape:zoom="1.5242267"
     inkscape:cx="164.67367"
     inkscape:cy="90.86575"
     inkscape:window-width="1440"
     inkscape:window-height="840"
     inkscape:window-x="3"
     inkscape:window-y="28"
     inkscape:window-maximized="0"
     inkscape:current-layer="g64" />
  <title
     id="title1">Qt SVG Document</title>
  <desc
     id="desc1">MATLAB, The MathWorks, Inc. Version 25.1.0.2943329 R2025a</desc>
  <defs
     id="defs1" />
  <g
     fill="none"
     stroke="black"
     stroke-width="1"
     fill-rule="evenodd"
     stroke-linecap="square"
     stroke-linejoin="bevel"
     id="g76">
    <g
       fill="#ffffff"
       fill-opacity="1"
       stroke="none"
       transform="matrix(0.5,0,0,0.5,-2.6,-8.25)"
       font-family=".AppleSystemUIFont"
       font-size="13"
       font-weight="400"
       font-style="normal"
       id="g1">
      <path
         vector-effect="none"
         fill-rule="evenodd"
         d="M4,15 L469,15 L469,358 L4,358 L4,15"
         id="path1" />
    </g>
    <g
       fill="#ffffff"
       fill-opacity="1"
       stroke="none"
       transform="matrix(5e-05,0,0,5e-05,-2.6,-8.25)"
       font-family=".AppleSystemUIFont"
       font-size="13"
       font-weight="400"
       font-style="normal"
       id="g2">
      <path
         vector-effect="none"
         fill-rule="evenodd"
         d="M660000,270000 L660000,3.06e+06 L4.56e+06,3.06e+06 L4.56e+06,270000 L660000,270000"
         id="path2" />
    </g>
    <g
       fill="#212121"
       fill-opacity="0.14902"
       stroke="#212121"
       stroke-opacity="0.14902"
       stroke-width="1"
       stroke-linecap="butt"
       stroke-linejoin="round"
       transform="matrix(0.5,0,0,0.5,-2.6,-8.25)"
       font-family=".AppleSystemUIFont"
       font-size="13"
       font-weight="400"
       font-style="normal"
       id="g12">
      <polyline
         fill="none"
         vector-effect="none"
         points="66,27 66,306 "
         id="polyline2" />
      <polyline
         fill="none"
         vector-effect="none"
         points="144,27 144,306 "
         id="polyline3" />
      <polyline
         fill="none"
         vector-effect="none"
         points="222,27 222,306 "
         id="polyline4" />
      <polyline
         fill="none"
         vector-effect="none"
         points="300,27 300,306 "
         id="polyline5" />
      <polyline
         fill="none"
         vector-effect="none"
         points="378,27 378,306 "
         id="polyline6" />
      <polyline
         fill="none"
         vector-effect="none"
         points="456,27 456,306 "
         id="polyline7" />
      <polyline
         fill="none"
         vector-effect="none"
         points="66,306 456,306 "
         id="polyline8" />
      <polyline
         fill="none"
         vector-effect="none"
         points="66,236.25 456,236.25 "
         id="polyline9" />
      <polyline
         fill="none"
         vector-effect="none"
         points="66,166.5 456,166.5 "
         id="polyline10" />
      <polyline
         fill="none"
         vector-effect="none"
         points="66,96.75 456,96.75 "
         id="polyline11" />
      <polyline
         fill="none"
         vector-effect="none"
         points="66,27 456,27 "
         id="polyline12" />
    </g>
    <g
       fill="#212121"
       fill-opacity="1"
       stroke="#212121"
       stroke-opacity="1"
       stroke-width="1"
       stroke-linecap="square"
       stroke-linejoin="bevel"
       transform="matrix(0.5,0,0,0.5,104.15,167.4)"
       font-family="Helvetica"
       font-size="20"
       font-weight="400"
       font-style="normal"
       id="g13">
      <text
         fill="#212121"
         fill-opacity="1"
         stroke="none"
         xml:space="preserve"
         x="48.056641"
         y="0.390625"
         font-family="Helvetica"
         font-size="20px"
         font-weight="400"
         font-style="normal"
         id="text12"
         style="text-align:center;text-anchor:middle">Tiempo (s)</text>
    </g>
    <g
       fill="#212121"
       fill-opacity="1"
       stroke="#212121"
       stroke-opacity="1"
       stroke-width="1"
       stroke-linecap="square"
       stroke-linejoin="round"
       transform="matrix(0.5,0,0,0.5,-2.6,-8.25)"
       font-family="Helvetica"
       font-size="20"
       font-weight="400"
       font-style="normal"
       id="g26">
      <polyline
         fill="none"
         vector-effect="none"
         points="66,306 456,306 "
         id="polyline13" />
      <polyline
         fill="none"
         vector-effect="none"
         points="66,27 456,27 "
         id="polyline14" />
      <polyline
         fill="none"
         vector-effect="none"
         points="66,306 66,302.1 "
         id="polyline15" />
      <polyline
         fill="none"
         vector-effect="none"
         points="66,30.9 66,27 "
         id="polyline16" />
      <polyline
         fill="none"
         vector-effect="none"
         points="144,306 144,302.1 "
         id="polyline17" />
      <polyline
         fill="none"
         vector-effect="none"
         points="144,30.9 144,27 "
         id="polyline18" />
      <polyline
         fill="none"
         vector-effect="none"
         points="222,306 222,302.1 "
         id="polyline19" />
      <polyline
         fill="none"
         vector-effect="none"
         points="222,30.9 222,27 "
         id="polyline20" />
      <polyline
         fill="none"
         vector-effect="none"
         points="300,306 300,302.1 "
         id="polyline21" />
      <polyline
         fill="none"
         vector-effect="none"
         points="300,30.9 300,27 "
         id="polyline22" />
      <polyline
         fill="none"
         vector-effect="none"
         points="378,306 378,302.1 "
         id="polyline23" />
      <polyline
         fill="none"
         vector-effect="none"
         points="378,30.9 378,27 "
         id="polyline24" />
      <polyline
         fill="none"
         vector-effect="none"
         points="456,306 456,302.1 "
         id="polyline25" />
      <polyline
         fill="none"
         vector-effect="none"
         points="456,30.9 456,27 "
         id="polyline26" />
    </g>
    <g
       fill="#212121"
       fill-opacity="1"
       stroke="#212121"
       stroke-opacity="1"
       stroke-width="1"
       stroke-linecap="square"
       stroke-linejoin="bevel"
       transform="matrix(0.5,0,0,0.5,27.65,155.65)"
       font-family="Helvetica"
       font-size="19"
       font-weight="400"
       font-style="normal"
       id="g27">
      <text
         fill="#212121"
         fill-opacity="1"
         stroke="none"
         xml:space="preserve"
         x="0"
         y="-0.375"
         font-family="Helvetica"
         font-size="19"
         font-weight="400"
         font-style="normal"
         id="text26">0</text>
    </g>
    <g
       fill="#212121"
       fill-opacity="1"
       stroke="#212121"
       stroke-opacity="1"
       stroke-width="1"
       stroke-linecap="square"
       stroke-linejoin="bevel"
       transform="matrix(0.5,0,0,0.5,66.65,155.65)"
       font-family="Helvetica"
       font-size="19"
       font-weight="400"
       font-style="normal"
       id="g28">
      <text
         fill="#212121"
         fill-opacity="1"
         stroke="none"
         xml:space="preserve"
         x="0"
         y="-0.375"
         font-family="Helvetica"
         font-size="19"
         font-weight="400"
         font-style="normal"
         id="text27">2</text>
    </g>
    <g
       fill="#212121"
       fill-opacity="1"
       stroke="#212121"
       stroke-opacity="1"
       stroke-width="1"
       stroke-linecap="square"
       stroke-linejoin="bevel"
       transform="matrix(0.5,0,0,0.5,105.65,155.65)"
       font-family="Helvetica"
       font-size="19"
       font-weight="400"
       font-style="normal"
       id="g29">
      <text
         fill="#212121"
         fill-opacity="1"
         stroke="none"
         xml:space="preserve"
         x="0"
         y="-0.375"
         font-family="Helvetica"
         font-size="19"
         font-weight="400"
         font-style="normal"
         id="text28">4</text>
    </g>
    <g
       fill="#212121"
       fill-opacity="1"
       stroke="#212121"
       stroke-opacity="1"
       stroke-width="1"
       stroke-linecap="square"
       stroke-linejoin="bevel"
       transform="matrix(0.5,0,0,0.5,144.65,155.65)"
       font-family="Helvetica"
       font-size="19"
       font-weight="400"
       font-style="normal"
       id="g30">
      <text
         fill="#212121"
         fill-opacity="1"
         stroke="none"
         xml:space="preserve"
         x="0"
         y="-0.375"
         font-family="Helvetica"
         font-size="19"
         font-weight="400"
         font-style="normal"
         id="text29">6</text>
    </g>
    <g
       fill="#212121"
       fill-opacity="1"
       stroke="#212121"
       stroke-opacity="1"
       stroke-width="1"
       stroke-linecap="square"
       stroke-linejoin="bevel"
       transform="matrix(0.5,0,0,0.5,183.65,155.65)"
       font-family="Helvetica"
       font-size="19"
       font-weight="400"
       font-style="normal"
       id="g31">
      <text
         fill="#212121"
         fill-opacity="1"
         stroke="none"
         xml:space="preserve"
         x="0"
         y="-0.375"
         font-family="Helvetica"
         font-size="19"
         font-weight="400"
         font-style="normal"
         id="text30">8</text>
    </g>
    <g
       fill="#212121"
       fill-opacity="1"
       stroke="#212121"
       stroke-opacity="1"
       stroke-width="1"
       stroke-linecap="square"
       stroke-linejoin="bevel"
       transform="matrix(0.5,0,0,0.5,220.15,155.65)"
       font-family="Helvetica"
       font-size="19"
       font-weight="400"
       font-style="normal"
       id="g32">
      <text
         fill="#212121"
         fill-opacity="1"
         stroke="none"
         xml:space="preserve"
         x="0"
         y="-0.375"
         font-family="Helvetica"
         font-size="19"
         font-weight="400"
         font-style="normal"
         id="text31">10</text>
    </g>
    <g
       fill="#212121"
       fill-opacity="1"
       stroke="#212121"
       stroke-opacity="1"
       stroke-width="1"
       stroke-linecap="square"
       stroke-linejoin="bevel"
       transform="matrix(0,-0.5,0.5,0,8.5,94.5)"
       font-family="Helvetica"
       font-size="20"
       font-weight="400"
       font-style="normal"
       id="g33">
      <text
         fill="#212121"
         fill-opacity="1"
         stroke="none"
         xml:space="preserve"
         x="39.507812"
         y="0.390625"
         font-family="Helvetica"
         font-size="20px"
         font-weight="400"
         font-style="normal"
         id="text32"
         style="text-align:center;text-anchor:middle">Amplitud</text>
    </g>
    <g
       fill="#212121"
       fill-opacity="1"
       stroke="#212121"
       stroke-opacity="1"
       stroke-width="1"
       stroke-linecap="square"
       stroke-linejoin="round"
       transform="matrix(0.5,0,0,0.5,-2.6,-8.25)"
       font-family="Helvetica"
       font-size="20"
       font-weight="400"
       font-style="normal"
       id="g44">
      <polyline
         fill="none"
         vector-effect="none"
         points="66,306 66,27 "
         id="polyline33" />
      <polyline
         fill="none"
         vector-effect="none"
         points="456,306 456,27 "
         id="polyline34" />
      <polyline
         fill="none"
         vector-effect="none"
         points="66,306 69.9,306 "
         id="polyline35" />
      <polyline
         fill="none"
         vector-effect="none"
         points="452.1,306 456,306 "
         id="polyline36" />
      <polyline
         fill="none"
         vector-effect="none"
         points="66,236.25 69.9,236.25 "
         id="polyline37" />
      <polyline
         fill="none"
         vector-effect="none"
         points="452.1,236.25 456,236.25 "
         id="polyline38" />
      <polyline
         fill="none"
         vector-effect="none"
         points="66,166.5 69.9,166.5 "
         id="polyline39" />
      <polyline
         fill="none"
         vector-effect="none"
         points="452.1,166.5 456,166.5 "
         id="polyline40" />
      <polyline
         fill="none"
         vector-effect="none"
         points="66,96.75 69.9,96.75 "
         id="polyline41" />
      <polyline
         fill="none"
         vector-effect="none"
         points="452.1,96.75 456,96.75 "
         id="polyline42" />
      <polyline
         fill="none"
         vector-effect="none"
         points="66,27 69.9,27 "
         id="polyline43" />
      <polyline
         fill="none"
         vector-effect="none"
         points="452.1,27 456,27 "
         id="polyline44" />
    </g>
    <g
       fill="#212121"
       fill-opacity="1"
       stroke="#212121"
       stroke-opacity="1"
       stroke-width="1"
       stroke-linecap="square"
       stroke-linejoin="bevel"
       transform="matrix(0.5,0,0,0.5,21.5,147.5)"
       font-family="Helvetica"
       font-size="19"
       font-weight="400"
       font-style="normal"
       id="g45">
      <text
         fill="#212121"
         fill-opacity="1"
         stroke="none"
         xml:space="preserve"
         x="0"
         y="-0.375"
         font-family="Helvetica"
         font-size="19"
         font-weight="400"
         font-style="normal"
         id="text44">0</text>
    </g>
    <g
       fill="#212121"
       fill-opacity="1"
       stroke="#212121"
       stroke-opacity="1"
       stroke-width="1"
       stroke-linecap="square"
       stroke-linejoin="bevel"
       transform="matrix(0.5,0,0,0.5,14,112.625)"
       font-family="Helvetica"
       font-size="19"
       font-weight="400"
       font-style="normal"
       id="g46">
      <text
         fill="#212121"
         fill-opacity="1"
         stroke="none"
         xml:space="preserve"
         x="0"
         y="-0.375"
         font-family="Helvetica"
         font-size="19"
         font-weight="400"
         font-style="normal"
         id="text45">0.5</text>
    </g>
    <g
       fill="#212121"
       fill-opacity="1"
       stroke="#212121"
       stroke-opacity="1"
       stroke-width="1"
       stroke-linecap="square"
       stroke-linejoin="bevel"
       transform="matrix(0.5,0,0,0.5,21.5,77.75)"
       font-family="Helvetica"
       font-size="19"
       font-weight="400"
       font-style="normal"
       id="g47">
      <text
         fill="#212121"
         fill-opacity="1"
         stroke="none"
         xml:space="preserve"
         x="0"
         y="-0.375"
         font-family="Helvetica"
         font-size="19"
         font-weight="400"
         font-style="normal"
         id="text46">1</text>
    </g>
    <g
       fill="#212121"
       fill-opacity="1"
       stroke="#212121"
       stroke-opacity="1"
       stroke-width="1"
       stroke-linecap="square"
       stroke-linejoin="bevel"
       transform="matrix(0.5,0,0,0.5,14,42.875)"
       font-family="Helvetica"
       font-size="19"
       font-weight="400"
       font-style="normal"
       id="g48">
      <text
         fill="#212121"
         fill-opacity="1"
         stroke="none"
         xml:space="preserve"
         x="0"
         y="-0.375"
         font-family="Helvetica"
         font-size="19"
         font-weight="400"
         font-style="normal"
         id="text47">1.5</text>
    </g>
    <g
       fill="#212121"
       fill-opacity="1"
       stroke="#212121"
       stroke-opacity="1"
       stroke-width="1"
       stroke-linecap="square"
       stroke-linejoin="bevel"
       transform="matrix(0.5,0,0,0.5,21.5,8)"
       font-family="Helvetica"
       font-size="19"
       font-weight="400"
       font-style="normal"
       id="g49">
      <text
         fill="#212121"
         fill-opacity="1"
         stroke="none"
         xml:space="preserve"
         x="0"
         y="-0.375"
         font-family="Helvetica"
         font-size="19"
         font-weight="400"
         font-style="normal"
         id="text48">2</text>
    </g>
    <g
       fill="none"
       stroke="#808080"
       stroke-opacity="1"
       stroke-dasharray="10,6"
       stroke-dashoffset="0"
       stroke-width="1"
       stroke-linecap="butt"
       stroke-linejoin="round"
       transform="matrix(0.5,0,0,0.5,-2.6,-8.25)"
       font-family="Helvetica"
       font-size="19"
       font-weight="400"
       font-style="normal"
       id="g50">
      <polyline
         fill="none"
         vector-effect="none"
         points="66,306 66,306 66.0049,306 66.0294,306 66.1519,305.998 66.7643,305.952 69.9,304.843 73.8,301.776 77.7,297.313 81.6,291.868 85.5,285.765 89.4,279.262 93.3,272.56 97.2,265.814 101.1,259.142 105,252.63 108.9,246.344 112.8,240.328 116.7,234.61 120.6,229.21 124.5,224.134 128.4,219.385 132.3,214.957 136.2,210.843 140.1,207.03 144,203.507 147.9,200.257 151.8,197.266 155.7,194.517 159.6,191.996 163.5,189.687 167.4,187.574 171.3,185.643 175.2,183.88 179.1,182.272 183,180.807 186.9,179.472 190.8,178.259 194.7,177.155 198.6,176.151 202.5,175.24 206.4,174.413 210.3,173.662 214.2,172.981 218.1,172.364 222,171.805 225.9,171.298 229.8,170.838 233.7,170.422 237.6,170.046 241.5,169.705 245.4,169.397 249.3,169.118 253.2,168.865 257.1,168.637 261,168.431 264.9,168.244 268.8,168.075 272.7,167.923 276.6,167.785 280.5,167.66 284.4,167.548 288.3,167.446 292.2,167.354 296.1,167.271 297.875,167.236 299.651,167.203 299.911,167.198 300,167.196 300,167.196 300.089,167.195 300.536,167.187 302.768,167.147 303.9,167.129 307.8,167.067 311.7,167.012 315.6,166.962 319.5,166.917 323.4,166.877 327.3,166.84 331.2,166.807 333.981,166.785 333.981,166.785 335.1,166.777 339,166.75 342.9,166.725 346.8,166.703 350.7,166.683 354.6,166.666 358.5,166.649 362.4,166.635 366.3,166.622 370.2,166.61 374.1,166.599 378,166.589 381.9,166.58 385.8,166.573 389.7,166.565 393.6,166.559 397.5,166.553 401.4,166.548 405.3,166.543 409.2,166.539 413.1,166.535 417,166.532 420.9,166.529 424.8,166.526 428.7,166.523 432.6,166.521 436.5,166.519 440.4,166.517 444.3,166.515 448.2,166.514 452.1,166.512 456,166.511 "
         id="polyline49" />
    </g>
    <g
       fill="none"
       stroke="#0000ff"
       stroke-opacity="1"
       stroke-width="1"
       stroke-linecap="butt"
       stroke-linejoin="round"
       transform="matrix(0.5,0,0,0.5,-2.6,-8.25)"
       font-family="Helvetica"
       font-size="19"
       font-weight="400"
       font-style="normal"
       id="g51">
      <polyline
         fill="none"
         vector-effect="none"
         points="66,306 66,306 66.0049,306 66.0294,306 66.1519,305.998 66.7643,305.952 69.9,304.857 73.8,301.832 77.7,297.415 81.6,292.004 85.5,285.916 89.4,279.406 93.3,272.673 97.2,265.873 101.1,259.128 105,252.528 108.9,246.141 112.8,240.015 116.7,234.183 120.6,228.666 124.5,223.474 128.4,218.612 132.3,214.075 136.2,209.859 140.1,205.952 144,202.342 147.9,199.015 151.8,195.955 155.7,193.148 159.6,190.576 163.5,188.226 167.4,186.08 171.3,184.124 175.2,182.344 179.1,180.726 183,179.258 186.9,177.926 190.8,176.72 194.7,175.629 198.6,174.643 202.5,173.753 206.4,172.95 210.3,172.226 214.2,171.575 218.1,170.989 222,170.463 225.9,169.991 229.8,169.567 233.7,169.188 237.6,168.848 241.5,168.544 245.4,168.273 249.3,168.031 253.2,167.816 257.1,167.624 261,167.454 264.9,167.302 268.8,167.168 272.7,167.05 276.6,166.945 280.5,166.853 284.4,166.772 288.3,166.701 292.2,166.639 296.1,166.584 297.875,166.562 299.651,166.541 299.911,166.538 300,166.537 300,166.537 300.089,166.536 300.536,166.531 302.768,166.508 303.9,166.496 307.8,166.461 311.7,166.431 315.6,166.405 319.5,166.383 323.4,166.365 327.3,166.35 331.2,166.337 333.981,166.33 333.981,166.33 335.1,166.327 339,166.319 342.9,166.313 346.8,166.309 350.7,166.306 354.6,166.304 358.5,166.303 362.4,166.303 366.3,166.304 370.2,166.306 374.1,166.308 378,166.311 381.9,166.314 385.8,166.318 389.7,166.322 393.6,166.326 397.5,166.33 401.4,166.334 405.3,166.339 409.2,166.343 413.1,166.348 417,166.352 420.9,166.357 424.8,166.361 428.7,166.366 432.6,166.37 436.5,166.375 440.4,166.379 444.3,166.383 448.2,166.387 452.1,166.391 456,166.395 "
         id="polyline50" />
    </g>
    <g
       fill="none"
       stroke="#00ff00"
       stroke-opacity="1"
       stroke-width="1"
       stroke-linecap="butt"
       stroke-linejoin="round"
       transform="matrix(0.5,0,0,0.5,-2.6,-8.25)"
       font-family="Helvetica"
       font-size="19"
       font-weight="400"
       font-style="normal"
       id="g52">
      <polyline
         fill="none"
         vector-effect="none"
         points="66,82.8627 69.9,75.6234 73.8,71.4695 77.7,69.7376 81.6,69.8837 85.5,71.4634 89.4,74.1151 93.3,77.5462 97.2,81.521 101.1,85.8512 105,90.3873 108.9,95.0119 112.8,99.634 116.7,104.184 120.6,108.61 124.5,112.873 128.4,116.948 132.3,120.816 136.2,124.468 140.1,127.899 144,131.11 147.9,134.102 151.8,136.882 155.7,139.458 159.6,141.839 163.5,144.035 167.4,146.055 171.3,147.91 175.2,149.612 179.1,151.17 183,152.594 186.9,153.895 190.8,155.081 194.7,156.162 198.6,157.146 202.5,158.04 206.4,158.853 210.3,159.591 214.2,160.261 218.1,160.868 222,161.418 225.9,161.916 229.8,162.367 233.7,162.774 237.6,163.143 241.5,163.476 245.4,163.777 249.3,164.049 253.2,164.294 257.1,164.515 261,164.715 264.9,164.894 268.8,165.057 272.7,165.203 276.6,165.334 280.5,165.453 284.4,165.56 288.3,165.656 292.2,165.742 296.1,165.82 300,165.89 303.9,165.953 307.8,166.009 311.7,166.06 315.6,166.106 319.5,166.147 323.4,166.184 327.3,166.217 331.2,166.247 335.1,166.273 339,166.297 342.9,166.319 346.8,166.338 350.7,166.355 354.6,166.371 358.5,166.385 362.4,166.397 366.3,166.409 370.2,166.419 374.1,166.428 378,166.436 381.9,166.443 385.8,166.449 389.7,166.455 393.6,166.46 397.5,166.465 401.4,166.469 405.3,166.472 409.2,166.476 413.1,166.479 417,166.481 420.9,166.484 424.8,166.486 428.7,166.488 432.6,166.489 436.5,166.491 440.4,166.492 444.3,166.493 448.2,166.494 452.1,166.495 456,166.496 "
         id="polyline51" />
    </g>
    <g
       fill="none"
       stroke="#ff0000"
       stroke-opacity="1"
       stroke-dasharray="10,6"
       stroke-dashoffset="0"
       stroke-width="1"
       stroke-linecap="butt"
       stroke-linejoin="round"
       transform="matrix(0.5,0,0,0.5,-2.6,-8.25)"
       font-family="Helvetica"
       font-size="19"
       font-weight="400"
       font-style="normal"
       id="g53">
      <polyline
         fill="none"
         vector-effect="none"
         points="66,166.5 66,166.5 66.0049,166.5 66.0294,166.5 66.1519,166.5 66.7643,166.5 69.9,166.5 73.8,166.5 77.7,166.5 81.6,166.5 85.5,166.5 89.4,166.5 93.3,166.5 97.2,166.5 101.1,166.5 105,166.5 108.9,166.5 112.8,166.5 116.7,166.5 120.6,166.5 124.5,166.5 128.4,166.5 132.3,166.5 136.2,166.5 140.1,166.5 144,166.5 147.9,166.5 151.8,166.5 155.7,166.5 159.6,166.5 163.5,166.5 167.4,166.5 171.3,166.5 175.2,166.5 179.1,166.5 183,166.5 186.9,166.5 190.8,166.5 194.7,166.5 198.6,166.5 202.5,166.5 206.4,166.5 210.3,166.5 214.2,166.5 218.1,166.5 222,166.5 225.9,166.5 229.8,166.5 233.7,166.5 237.6,166.5 241.5,166.5 245.4,166.5 249.3,166.5 253.2,166.5 257.1,166.5 261,166.5 264.9,166.5 268.8,166.5 272.7,166.5 276.6,166.5 280.5,166.5 284.4,166.5 288.3,166.5 292.2,166.5 296.1,166.5 297.875,166.5 299.651,166.5 299.911,166.5 300,166.5 300,166.5 300.089,166.5 300.536,166.5 302.768,166.5 303.9,166.5 307.8,166.5 311.7,166.5 315.6,166.5 319.5,166.5 323.4,166.5 327.3,166.5 331.2,166.5 333.981,166.5 333.981,166.5 335.1,166.5 339,166.5 342.9,166.5 346.8,166.5 350.7,166.5 354.6,166.5 358.5,166.5 362.4,166.5 366.3,166.5 370.2,166.5 374.1,166.5 378,166.5 381.9,166.5 385.8,166.5 389.7,166.5 393.6,166.5 397.5,166.5 401.4,166.5 405.3,166.5 409.2,166.5 413.1,166.5 417,166.5 420.9,166.5 424.8,166.5 428.7,166.5 432.6,166.5 436.5,166.5 440.4,166.5 444.3,166.5 448.2,166.5 452.1,166.5 456,166.5 "
         id="polyline52" />
    </g>
    <g
       fill="#808080"
       fill-opacity="1"
       stroke="#808080"
       stroke-opacity="1"
       stroke-dasharray="10,6"
       stroke-dashoffset="0"
       stroke-width="1"
       stroke-linecap="butt"
       stroke-linejoin="round"
       transform="matrix(0.5,0,0,0.5,-2.6,-8.25)"
       font-family="Helvetica"
       font-size="19"
       font-weight="400"
       font-style="normal"
       id="g54">
      <polyline
         fill="none"
         vector-effect="none"
         points="237.6,306 237.6,54.9 "
         id="polyline53" />
    </g>
    <g
       fill="#0000ff"
       fill-opacity="1"
       stroke="none"
       transform="matrix(0.5,0,0,0.5,-2.6,-8.25)"
       font-family="Helvetica"
       font-size="19"
       font-weight="400"
       font-style="normal"
       id="g55">
      <circle
         cx="237.6"
         cy="168.848"
         r="3"
         id="circle54" />
    </g>
    <g
       fill="none"
       stroke="#000000"
       stroke-opacity="1"
       stroke-width="1"
       stroke-linecap="butt"
       stroke-linejoin="miter"
       stroke-miterlimit="2"
       transform="matrix(0.5,0,0,0.5,-2.6,-8.25)"
       font-family="Helvetica"
       font-size="19"
       font-weight="400"
       font-style="normal"
       id="g56">
      <path
         vector-effect="none"
         fill-rule="evenodd"
         d="M240.6,168.848 C240.6,167.191 239.257,165.848 237.6,165.848 C235.943,165.848 234.6,167.191 234.6,168.848 C234.6,170.505 235.943,171.848 237.6,171.848 C239.257,171.848 240.6,170.505 240.6,168.848 "
         id="path55" />
    </g>
    <g
       fill="#ffffff"
       fill-opacity="1"
       stroke="none"
       transform="matrix(5e-05,0,0,5e-05,-2.6,-8.25)"
       font-family="Helvetica"
       font-size="19"
       font-weight="400"
       font-style="normal"
       id="g57">
      <path
         vector-effect="none"
         fill-rule="evenodd"
         d="M1.876e+06,3.03025e+06 L2.866e+06,3.03025e+06 L2.866e+06,2.66025e+06 L1.876e+06,2.66025e+06 L1.876e+06,3.03025e+06"
         id="path56" />
    </g>
    <g
       fill="#212121"
       fill-opacity="1"
       stroke="#212121"
       stroke-opacity="1"
       stroke-width="1"
       stroke-linecap="square"
       stroke-linejoin="bevel"
       transform="matrix(0.5,0,0,0.5,100.4,134.25)"
       font-family="Helvetica"
       font-size="20"
       font-weight="400"
       font-style="normal"
       id="g60">
      <text
         fill="#212121"
         fill-opacity="1"
         stroke="none"
         xml:space="preserve"
         x="25.648829"
         y="0.390625"
         font-family="Helvetica"
         font-size="20px"
         font-weight="400"
         font-style="normal"
         id="text59"
         style="text-align:center;text-anchor:middle">$t_s = 4.40$ s</text>
    </g>
    <g
       fill="#ff0000"
       fill-opacity="1"
       stroke="none"
       transform="matrix(0.5,0,0,0.5,-2.6,-8.25)"
       font-family="Helvetica"
       font-size="20"
       font-weight="400"
       font-style="normal"
       id="g61">
      <circle
         cx="358.5"
         cy="166.303"
         r="3"
         id="circle60" />
    </g>
    <g
       fill="none"
       stroke="#000000"
       stroke-opacity="1"
       stroke-width="1"
       stroke-linecap="butt"
       stroke-linejoin="miter"
       stroke-miterlimit="2"
       transform="matrix(0.5,0,0,0.5,-2.6,-8.25)"
       font-family="Helvetica"
       font-size="20"
       font-weight="400"
       font-style="normal"
       id="g62">
      <path
         vector-effect="none"
         fill-rule="evenodd"
         d="M361.5,166.303 C361.5,164.646 360.157,163.303 358.5,163.303 C356.843,163.303 355.5,164.646 355.5,166.303 C355.5,167.96 356.843,169.303 358.5,169.303 C360.157,169.303 361.5,167.96 361.5,166.303 "
         id="path61" />
    </g>
    <g
       fill="#ffffff"
       fill-opacity="1"
       stroke="none"
       transform="matrix(5e-05,0,0,5e-05,-2.6,-8.25)"
       font-family="Helvetica"
       font-size="20"
       font-weight="400"
       font-style="normal"
       id="g63">
      <path
         vector-effect="none"
         fill-rule="evenodd"
         d="M3.0325e+06,2.23178e+06 L3.9425e+06,2.23178e+06 L3.9425e+06,1.79178e+06 L3.0325e+06,1.79178e+06 L3.0325e+06,2.23178e+06"
         id="path62" />
    </g>
    <g
       fill="#212121"
       fill-opacity="1"
       stroke="#212121"
       stroke-opacity="1"
       stroke-width="1"
       stroke-linecap="square"
       stroke-linejoin="bevel"
       transform="matrix(0.5,0,0,0.5,151.025,90.339)"
       font-family="Helvetica"
       font-size="18"
       font-weight="400"
       font-style="normal"
       id="g64">
      <text
         fill="#212121"
         fill-opacity="1"
         stroke="none"
         xml:space="preserve"
         x="50.628418"
         y="-6.1406269"
         font-family="Helvetica"
         font-size="18px"
         font-weight="400"
         font-style="normal"
         id="text63"
         style="font-size:10px;text-align:center;text-anchor:middle"><tspan
           sodipodi:role="line"
           id="tspan76"
           x="50.628418"
           y="-6.1406269"
           style="font-size:10px;text-align:center;text-anchor:middle">{\small Sobrepaso $0.0659%$}</tspan><tspan
           sodipodi:role="line"
           x="50.628418"
           y="6.3593731"
           id="tspan78"
           style="font-size:10px;text-align:center;text-anchor:middle">{\small Error estacionario $0%$}</tspan><tspan
           sodipodi:role="line"
           id="tspan77"
           x="50.628418"
           y="18.859375"
           style="font-size:10px;text-align:center;text-anchor:middle" /></text>
    </g>
    <g
       fill="#ffffff"
       fill-opacity="1"
       stroke="none"
       transform="matrix(5e-05,0,0,5e-05,-2.6,-8.25)"
       font-family="Helvetica"
       font-size="18"
       font-weight="400"
       font-style="normal"
       id="g66">
      <path
         vector-effect="none"
         fill-rule="evenodd"
         d="M2.55e+06,410000 L2.55e+06,1.29e+06 L4.42e+06,1.29e+06 L4.42e+06,410000 L2.55e+06,410000"
         id="path65" />
    </g>
    <g
       fill="#808080"
       fill-opacity="1"
       stroke="#808080"
       stroke-opacity="1"
       stroke-dasharray="10,6"
       stroke-dashoffset="0"
       stroke-width="1"
       stroke-linecap="butt"
       stroke-linejoin="round"
       transform="matrix(0.5,0,0,0.5,-2.6,-8.25)"
       font-family="Helvetica"
       font-size="18"
       font-weight="400"
       font-style="normal"
       id="g67">
      <polyline
         fill="none"
         vector-effect="none"
         points="261.016,53.9632 321.177,53.9632 "
         id="polyline66" />
    </g>
    <g
       fill="#0000ff"
       fill-opacity="1"
       stroke="#0000ff"
       stroke-opacity="1"
       stroke-width="1"
       stroke-linecap="butt"
       stroke-linejoin="round"
       transform="matrix(0.5,0,0,0.5,-2.6,-8.25)"
       font-family="Helvetica"
       font-size="18"
       font-weight="400"
       font-style="normal"
       id="g68">
      <polyline
         fill="none"
         vector-effect="none"
         points="261.016,74.6544 321.177,74.6544 "
         id="polyline67" />
    </g>
    <g
       fill="#00ff00"
       fill-opacity="1"
       stroke="#00ff00"
       stroke-opacity="1"
       stroke-width="1"
       stroke-linecap="butt"
       stroke-linejoin="round"
       transform="matrix(0.5,0,0,0.5,-2.6,-8.25)"
       font-family="Helvetica"
       font-size="18"
       font-weight="400"
       font-style="normal"
       id="g69">
      <polyline
         fill="none"
         vector-effect="none"
         points="261.016,95.3456 321.177,95.3456 "
         id="polyline68" />
    </g>
    <g
       fill="#ff0000"
       fill-opacity="1"
       stroke="#ff0000"
       stroke-opacity="1"
       stroke-dasharray="10,6"
       stroke-dashoffset="0"
       stroke-width="1"
       stroke-linecap="butt"
       stroke-linejoin="round"
       transform="matrix(0.5,0,0,0.5,-2.6,-8.25)"
       font-family="Helvetica"
       font-size="18"
       font-weight="400"
       font-style="normal"
       id="g70">
      <polyline
         fill="none"
         vector-effect="none"
         points="261.016,116.037 321.177,116.037 "
         id="polyline69" />
    </g>
    <g
       fill="#212121"
       fill-opacity="1"
       stroke="#212121"
       stroke-opacity="1"
       stroke-width="1"
       stroke-linecap="square"
       stroke-linejoin="bevel"
       transform="matrix(0.5,0,0,0.5,160.244,20.9816)"
       font-family="Helvetica"
       font-size="17"
       font-weight="400"
       font-style="normal"
       id="g71">
      <text
         fill="#212121"
         fill-opacity="1"
         stroke="none"
         xml:space="preserve"
         x="0"
         y="0.078125"
         font-family="Helvetica"
         font-size="17px"
         font-weight="400"
         font-style="normal"
         id="text70">Salida $y(t)$</text>
    </g>
    <g
       fill="#212121"
       fill-opacity="1"
       stroke="#212121"
       stroke-opacity="1"
       stroke-width="1"
       stroke-linecap="square"
       stroke-linejoin="bevel"
       transform="matrix(0.5,0,0,0.5,160.244,31.3272)"
       font-family="Helvetica"
       font-size="17"
       font-weight="400"
       font-style="normal"
       id="g72">
      <text
         fill="#212121"
         fill-opacity="1"
         stroke="none"
         xml:space="preserve"
         x="0"
         y="0.078125"
         font-family="Helvetica"
         font-size="17px"
         font-weight="400"
         font-style="normal"
         id="text71">Salida $y(k)$</text>
    </g>
    <g
       fill="#212121"
       fill-opacity="1"
       stroke="#212121"
       stroke-opacity="1"
       stroke-width="1"
       stroke-linecap="square"
       stroke-linejoin="bevel"
       transform="matrix(0.5,0,0,0.5,160.244,41.6728)"
       font-family="Helvetica"
       font-size="17"
       font-weight="400"
       font-style="normal"
       id="g73">
      <text
         fill="#212121"
         fill-opacity="1"
         stroke="none"
         xml:space="preserve"
         x="0"
         y="0.078125"
         font-family="Helvetica"
         font-size="17px"
         font-weight="400"
         font-style="normal"
         id="text72">Control $u(k)$</text>
    </g>
    <g
       fill="#212121"
       fill-opacity="1"
       stroke="#212121"
       stroke-opacity="1"
       stroke-width="1"
       stroke-linecap="square"
       stroke-linejoin="bevel"
       transform="matrix(0.5,0,0,0.5,160.244,52.0184)"
       font-family="Helvetica"
       font-size="17"
       font-weight="400"
       font-style="normal"
       id="g74">
      <text
         fill="#212121"
         fill-opacity="1"
         stroke="none"
         xml:space="preserve"
         x="0"
         y="0.078125"
         font-family="Helvetica"
         font-size="17px"
         font-weight="400"
         font-style="normal"
         id="text73">Referencia $r(t)$</text>
    </g>
    <g
       fill="none"
       stroke="#212121"
       stroke-opacity="1"
       stroke-width="1"
       stroke-linecap="butt"
       stroke-linejoin="miter"
       stroke-miterlimit="2"
       transform="matrix(0.5,0,0,0.5,-2.6,-8.25)"
       font-family="Helvetica"
       font-size="17"
       font-weight="400"
       font-style="normal"
       id="g75">
      <path
         vector-effect="none"
         fill-rule="evenodd"
         d="M255,129 L255,41 L442,41 L442,129 L255,129"
         id="path74" />
    </g>
  </g>
</svg>
